<svg xmlns="http://www.w3.org/2000/svg" width="640" height="320" viewBox="0 0 640 320"><rect width="640" height="320" fill="#676f55"/><rect y="250" width="640" height="70" fill="#a28053"/><rect x="200" y="55" width="240" height="185" fill="#acb9ab" stroke="#4d4f37" stroke-width="12"/><path d="M240 230V70M290 230V60M351 230V70M400 230V60" stroke="#53664d" stroke-width="12"/><path d="M207 120q70-120 115-10 100-100 115 30" fill="#7e936c"/><path d="M177 57h27v187h-27zM440 57h27v187h-27z" fill="#d0c2a0"/><path d="M172 245H468V262H172zM185 262h13v52h-13zM442 262h13v52h-13z" fill="#674b2b"/><path d="M280 232l65-6 3 17-65 6z" fill="#984b38"/><text x="20" y="30" font-family="Georgia,serif" font-size="16" fill="#f1e6cc">Woodland · style study</text></svg>
